<svg xmlns="http://www.w3.org/2000/svg" viewBox="0 0 308.7 240.84"><defs><style>.a,.b,.c,.d,.g{fill:none;stroke-miterlimit:10;}.a,.b,.c,.d,.e,.g{stroke:#fff;}.a{stroke-width:7px;}.b{stroke-width:6px;}.c{stroke-width:5px;}.d{stroke-width:3px;}.e,.f{fill:#fff;}.e{stroke-width:0.75px;font-size:20px;font-family:Avenir-Black, Avenir;font-weight:800;}.g{stroke-width:4px;}</style></defs><g transform="translate(-9 -34.039)"><g transform="translate(9 34)"><path class="a" d="M271.5,122.7c2.8,1.2,5.4,2.5,7.9,3.8,16.3,8.7,25.8,19.1,25.8,30.4,0,30-67.5,54.3-150.8,54.3S3.5,186.9,3.5,156.9c0-14.1,14.9-26.9,39.3-36.6"/><line class="a" y1="119.3" transform="translate(158.3 28.2)"/><line class="a" y2="31.5" transform="translate(175.9 28.9)"/><line class="b" y2="8.7" transform="translate(173.6 21.4)"/><line class="b" y2="8.7" transform="translate(160.8 21.2)"/><line class="c" y2="6.8" transform="translate(162.8 15)"/><line class="c" y2="6.8" transform="translate(171.6 15.3)"/><line class="d" x1="2.9" y1="16.4" transform="translate(167.3 0.3)"/><line class="d" x1="2.7" y2="16.5" transform="translate(164 0.6)"/><path class="a" d="M43.3,148.1l-.5-36.6-.2-15.8"/><line class="a" x2="24.5" transform="translate(39 97.6)"/><line class="a" y2="20.2" transform="translate(60.5 77.3)"/><line class="a" x1="22.3" transform="translate(58.7 80.7)"/><line class="a" y1="69.3" x2="0.5" transform="translate(77.2 78.5)"/><line class="a" y1="12.8" transform="translate(70.7 64.8)"/><line class="a" x2="16.8" transform="translate(68.2 68.2)"/><line class="a" y1="17.7" x2="0.1" transform="translate(81.6 52.3)"/><line class="a" x2="17.1" transform="translate(79.4 55.8)"/><line class="a" y2="94.6" transform="translate(92.9 53.4)"/><line class="a" y1="22.5" transform="translate(88.6 31.5)"/><line class="a" x1="28.3" y2="0.1" transform="translate(85.5 30.8)"/><line class="a" x2="23" transform="translate(103.8 119.9)"/><line class="a" y2="17.1" transform="translate(123.5 104.3)"/><line class="a" x1="15.7" transform="translate(120.8 107.9)"/><line class="a" y1="16.9" transform="translate(132.8 93.9)"/><line class="a" x1="29.4" transform="translate(129.5 96.8)"/><line class="a" y2="29.5" transform="translate(107.1 118.5)"/><line class="a" y1="90.1" transform="translate(172 58.1)"/><line class="a" x2="35" transform="translate(168.5 60)"/><line class="a" x2="13.8" y2="16.9" transform="translate(200.8 58.9)"/><line class="a" y2="74.6" transform="translate(213.7 73.4)"/><line class="a" y1="18.8" transform="translate(197.2 40.7)"/><line class="a" x2="17" transform="translate(193.6 43)"/><line class="a" x2="17" transform="translate(218.5 43.1)"/><line class="a" y2="104.7" transform="translate(231.8 43.1)"/><line class="a" y2="24.1" transform="translate(207.1 21.3)"/><line class="a" y2="24.5" transform="translate(222.1 20.9)"/><line class="a" x2="22" transform="translate(203.5 23.9)"/><line class="a" x2="18.7" transform="translate(232.8 89.8)"/><line class="a" y1="17.9" transform="translate(248 87.4)"/><line class="a" x1="18.5" transform="translate(244.5 102.3)"/><line class="a" y1="14.9" transform="translate(259.6 100.5)"/><line class="a" x2="18.6" transform="translate(256.2 112.6)"/><line class="a" y1="37.8" transform="translate(271.8 110.2)"/><line class="a" x2="0.5" y2="92.5" transform="translate(110.3 29.2)"/></g><text class="e" transform="translate(136.65 267.129)"><tspan x="0" y="0">spoty</tspan></text><g transform="translate(9 34)"><path class="f" d="M168.5,186.7H107.7l12-10.7h60.8Z"/><path class="f" d="M179.3,171.4H121.7l-.1-5h57.7Z"/><path class="f" d="M179.3,164.3H121.7v-5h57.6Z"/><path class="f" d="M179.1,157.6H121.6v-4.9H179Z"/><line class="g" y1="15.2" transform="translate(128.3 166.6)"/><line class="d" y1="12.6" transform="translate(169.4 168.6)"/><line class="g" y1="13.1" transform="translate(116.7 187.7)"/><line class="g" y1="14.4" transform="translate(162.6 187.5)"/><line class="g" y1="5.6" transform="translate(123.2 187.7)"/><path class="f" d="M174.3,182.7v11.2H177V180.3Z"/></g></g></svg>